# xmcd
#
# Track frame offsets:
#	150
#	40697
#	55390
#	78414
#	94841
#	98646
#	140138
#	162564
#	186870
#	209305
#	231493
#	244026
#	262959
#	291400
#	333501
#
# Disc length: 4728 seconds
#
# Revision: 1
# Processed by: cddbd v1.5.2PL0 Copyright (c) Steve Scherf et al.
# Submitted via: audiograbber 1.83.01
#
DISCID=df12760f
DTITLE=Grateful Dead - 71-04-29A Fillmore East, New York NY
DYEAR=1900
DGENRE=
TTITLE0=Black Peter
TTITLE1=BIODTL
TTITLE2=I Second That Emotion
TTITLE3=Alligator
TTITLE4=Drums
TTITLE5=Jam
TTITLE6=GDTRFB
TTITLE7=Cold Rain and Snow
TTITLE8=China Cat Sunflower
TTITLE9=I Know You Rider
TTITLE10=Greatest Story Ever Told
TTITLE11=Johnny B Goode
TTITLE12=Uncle John's Band
TTITLE13=In The Midnight Hour
TTITLE14=And We Bid You Goodnight
EXTD=
EXTT0=
EXTT1=
EXTT2=
EXTT3=
EXTT4=
EXTT5=
EXTT6=
EXTT7=
EXTT8=
EXTT9=
EXTT10=
EXTT11=
EXTT12=
EXTT13=
EXTT14=
PLAYORDER=
